<?xml version="1.0" standalone="no"?>
<!DOCTYPE svg PUBLIC "-//W3C//DTD SVG 20010904//EN"
 "http://www.w3.org/TR/2001/REC-SVG-20010904/DTD/svg10.dtd">
<svg version="1.0" xmlns="http://www.w3.org/2000/svg"
 width="672.000000pt" height="672.000000pt" viewBox="0 0 672.000000 672.000000"
 preserveAspectRatio="xMidYMid meet">
<metadata>
Created by potrace 1.14, written by Peter Selinger 2001-2017
</metadata>
<g transform="translate(0.000000,672.000000) scale(0.100000,-0.100000)"
fill="#000000" stroke="none">
<path d="M1895 6346 c-180 -49 -313 -135 -438 -285 -51 -62 -128 -216 -141
-283 -2 -13 -9 -42 -14 -64 -5 -23 -10 -86 -11 -141 -4 -220 70 -412 223 -571
42 -43 133 -112 304 -227 124 -84 343 -331 445 -503 69 -117 142 -264 152
-307 2 -11 12 -39 25 -70 22 -53 55 -200 76 -335 10 -61 10 -301 1 -375 -5
-33 -10 -75 -12 -93 -17 -125 -83 -324 -160 -477 -105 -209 -223 -360 -404
-515 -35 -30 -83 -73 -107 -95 -69 -64 -134 -117 -195 -160 -138 -97 -234
-217 -293 -365 -10 -25 -20 -52 -22 -60 -69 -269 -27 -518 120 -718 223 -303
615 -411 960 -265 136 57 249 149 341 278 44 61 100 174 109 216 3 13 10 40
16 59 13 42 19 106 25 249 4 111 9 161 26 248 6 29 10 54 10 55 -2 5 40 153
59 209 24 70 84 207 117 268 25 45 124 200 143 224 67 84 206 237 215 237 2 0
22 18 44 40 22 22 43 40 46 40 2 0 16 10 30 22 14 12 64 48 113 80 48 31 92
62 99 68 7 5 16 10 20 10 10 0 118 103 152 145 25 30 104 163 108 180 1 6 11
35 22 66 60 168 47 397 -32 569 -12 25 -23 47 -26 50 -3 3 -15 20 -25 39 -25
44 -49 74 -111 136 -60 59 -73 70 -143 113 -30 18 -59 37 -65 42 -7 5 -50 39
-96 75 -46 37 -133 118 -195 180 -122 125 -118 120 -170 191 -20 27 -41 54
-46 61 -74 91 -213 392 -236 512 -3 14 -7 28 -10 33 -3 5 -7 18 -10 31 -2 12
-6 33 -9 47 -3 14 -8 43 -11 65 -3 22 -7 46 -10 54 -2 7 -7 70 -9 140 -11 255
-21 311 -87 451 -61 128 -158 237 -285 320 -71 47 -177 95 -230 105 -15 2 -39
8 -53 12 -14 3 -79 7 -145 9 -96 1 -136 -3 -200 -20z"/>
<path d="M4489 6346 c-2 -2 -22 -6 -44 -9 -22 -3 -52 -10 -65 -15 -14 -5 -28
-10 -32 -11 -83 -17 -233 -106 -318 -190 -89 -87 -172 -220 -201 -321 -7 -25
-13 -47 -14 -50 -2 -5 -14 -65 -21 -105 -8 -38 -3 -214 6 -235 1 -3 2 -8 2
-11 -2 -15 37 -137 58 -184 33 -74 108 -184 161 -235 63 -61 98 -90 108 -90 4
0 16 -9 26 -20 10 -11 21 -17 26 -15 4 3 11 0 14 -5 8 -14 93 -52 160 -73 125
-39 258 -43 430 -13 27 5 154 56 185 74 91 54 107 67 184 141 98 95 184 245
211 370 3 12 8 31 11 44 3 12 8 76 9 142 2 99 -1 136 -20 208 -67 263 -254
468 -510 563 -70 25 -182 44 -271 44 -50 0 -93 -2 -95 -4z"/>
<path d="M758 4174 c-2 -1 -21 -5 -43 -8 -104 -13 -238 -69 -340 -141 -64 -46
-175 -156 -175 -174 0 -6 -4 -11 -8 -11 -22 0 -120 -221 -136 -306 -6 -31 -19
-173 -18 -189 2 -18 11 -89 16 -123 19 -128 112 -307 217 -413 102 -103 280
-203 402 -225 76 -14 273 -13 336 1 261 61 493 259 575 490 10 28 21 57 24 65
7 21 7 20 17 70 15 82 16 94 15 165 -3 223 -75 399 -233 564 -47 49 -202 161
-224 161 -4 0 -20 6 -35 14 -30 16 -114 41 -168 52 -36 6 -217 13 -222 8z"/>
<path d="M5696 4163 c-100 -17 -206 -60 -295 -118 -72 -48 -197 -166 -207
-197 -3 -10 -9 -18 -13 -18 -10 0 -99 -177 -105 -210 -3 -14 -10 -41 -16 -60
-20 -67 -28 -225 -15 -300 23 -128 70 -249 136 -347 39 -59 156 -175 212 -210
135 -85 300 -137 437 -137 69 0 185 18 260 41 8 2 17 5 20 5 14 2 173 89 200
109 158 120 281 316 317 504 9 47 10 236 2 281 -19 104 -94 292 -120 302 -5 2
-9 9 -9 16 0 21 -140 165 -199 205 -95 65 -187 106 -281 127 -19 4 -42 9 -50
11 -45 10 -205 8 -274 -4z"/>
<path d="M4514 2001 c-2 -2 -19 -5 -37 -6 -91 -7 -275 -81 -360 -147 -159
-121 -271 -296 -311 -485 -15 -69 -16 -267 -2 -328 28 -123 99 -272 161 -340
6 -7 25 -28 43 -49 83 -95 222 -179 367 -222 112 -33 270 -37 403 -10 27 6
130 44 146 54 6 3 18 7 26 9 8 1 16 7 18 12 2 6 10 11 17 11 8 0 20 6 27 13 7
6 32 25 56 41 55 37 152 141 195 209 34 53 89 178 102 232 17 70 19 95 20 195
0 114 -8 188 -24 218 -6 11 -8 22 -5 24 7 8 -72 174 -108 226 -72 103 -209
219 -318 269 -58 27 -181 63 -234 70 -54 6 -177 9 -182 4z"/>
</g>
</svg>
